<?xml version="1.0" standalone="no"?>
<!DOCTYPE svg PUBLIC "-//W3C//DTD SVG 20010904//EN"
 "http://www.w3.org/TR/2001/REC-SVG-20010904/DTD/svg10.dtd">
<svg version="1.0" xmlns="http://www.w3.org/2000/svg"
 width="527.000000pt" height="527.000000pt" viewBox="0 0 527.000000 527.000000"
 preserveAspectRatio="xMidYMid meet">
<metadata>
Created by potrace 1.11, written by Peter Selinger 2001-2013
</metadata>
<g transform="translate(0.000000,527.000000) scale(0.100000,-0.100000)"
fill="#000000" stroke="none">
<path d="M3905 5257 c-11 -8 -78 -44 -149 -81 -743 -389 -1031 -723 -1027
-1196 2 -328 133 -589 377 -751 38 -25 139 -82 224 -126 184 -94 319 -177 403
-245 171 -139 268 -288 284 -437 9 -87 2 -144 -28 -233 -84 -250 -404 -430
-1124 -631 -134 -38 -726 -188 -790 -201 -11 -2 -119 -29 -240 -59 -182 -46
-290 -72 -465 -112 -37 -9 -548 -117 -570 -121 -14 -3 -90 -18 -170 -34 -80
-16 -156 -31 -170 -34 -157 -29 -298 -57 -312 -62 -17 -5 -18 -35 -18 -450 0
-244 3 -444 8 -444 4 0 36 7 72 16 36 9 72 17 80 19 8 2 53 13 100 25 86 22
107 27 147 36 12 2 34 9 48 14 14 5 25 8 25 5 0 -2 15 1 33 6 17 6 42 12 55
15 17 3 927 231 1032 258 17 5 96 24 121 30 9 3 106 28 215 56 186 48 236 61
469 127 91 25 713 226 750 242 11 5 81 30 155 56 366 127 751 297 945 418 328
203 489 418 550 738 11 57 15 321 6 369 -5 25 -12 63 -15 85 -10 62 -23 106
-61 199 -113 281 -342 515 -674 689 -447 233 -641 380 -716 542 -27 57 -25
172 4 246 81 211 317 419 745 659 122 68 589 290 611 290 2 0 28 11 57 24 29
13 74 31 101 41 26 10 47 19 47 21 0 2 -251 4 -558 4 -449 0 -561 -3 -577 -13z"/>
<path d="M2187 4904 c-1 -1 -27 -5 -57 -9 -30 -3 -62 -8 -70 -10 -8 -2 -44 -7
-80 -10 -36 -4 -67 -8 -70 -10 -3 -2 -30 -6 -60 -9 -30 -3 -66 -8 -80 -11 -14
-2 -95 -13 -180 -25 -85 -12 -166 -23 -180 -25 -14 -2 -67 -9 -118 -16 -51 -6
-94 -15 -97 -19 -2 -3 -6 -184 -9 -401 -26 -1883 -22 -1746 -57 -1846 -47
-137 -145 -210 -312 -230 -77 -10 -283 -9 -358 2 l-56 7 -7 -48 c-4 -27 -10
-65 -12 -84 -3 -19 -9 -60 -14 -90 -5 -30 -12 -73 -15 -95 -2 -22 -6 -49 -9
-60 -3 -18 -9 -62 -22 -155 -3 -19 -9 -60 -14 -90 -5 -30 -12 -76 -15 -101 -6
-46 -6 -47 27 -53 18 -3 44 -8 58 -11 113 -23 362 -23 530 0 432 59 744 190
956 400 84 83 166 198 211 295 31 66 81 209 89 253 3 18 9 50 14 72 5 22 11
63 14 90 3 28 8 70 11 94 3 24 7 191 10 370 10 721 15 1034 20 1423 l6 408
-26 -2 c-14 -1 -27 -3 -28 -4z"/>
</g>
</svg>
